<?xml version="1.0" encoding="utf-8" ?>
<svg xmlns="http://www.w3.org/2000/svg" xmlns:xlink="http://www.w3.org/1999/xlink" width="1584" height="1584">
	<path fill="#00BFFD" transform="scale(3.09347 3.09347)" d="M227.496 58.653L234.772 58.653L365.78 58.653C350.746 73.4435 334.59 95.2638 320.834 111.649L269.757 173.18C262.461 182.082 254.816 190.705 247.829 199.86L410.585 199.86C396.81 211.278 382.666 222.228 368.744 233.457L198.854 369.775L126.898 426.408C119.046 432.491 111.048 438.342 103.804 445.165C107.407 437.904 118.427 424.401 123.894 416.937L229.092 272.907L103.804 272.907C121.986 238.194 144.041 202.329 163.779 168.324L201.315 103.191C209.915 88.2772 218.473 73.3166 227.496 58.653Z"/>
</svg>
