<svg version="1.1" xmlns="http://www.w3.org/2000/svg" style="display: block;" viewBox="0 0 2048 2048" width="512" height="512">
<path transform="translate(0,0)" fill="rgb(76,236,250)" d="M 909.983 234.612 L 938.138 234.612 L 1463.11 234.612 C 1403.05 293.64 1338.27 381.142 1283.34 446.591 L 1079.02 692.724 C 1049.84 728.325 1019.26 762.819 991.318 799.441 L 1642.34 799.441 C 1586.97 845.345 1530.04 889.275 1474.15 934.496 L 795.819 1478.78 L 507.593 1705.64 C 476.187 1729.97 444.248 1753.39 415.218 1780.62 C 429.554 1751.7 473.762 1697.53 495.577 1667.75 L 916.369 1091.62 L 415.218 1091.62 C 487.815 952.9 576.017 809.568 654.88 673.708 L 805.113 413.019 C 839.561 353.28 873.84 293.348 909.983 234.612 z"/>
</svg>